<?xml version="1.0" encoding="UTF-8"?>
<svg id="Capa_2" xmlns="http://www.w3.org/2000/svg" viewBox="0 0 131.73 131.58">
  <defs>
    <style>
      .cls-1 {
        fill: #cbd0d1;
      }
    </style>
  </defs>
  <g id="Capa_1-2" data-name="Capa_1">
    <g>
      <path class="cls-1" d="M71.54,124.41c3.03-3.44,6.78-6.23,7.96-14.73,1.18-8.49-2.22-12.65-5.13-15.72-2.92-3.06-9.42-7.72-19.02-9.34-9.6-1.62-18.79-4.4-20.38-5.39-8.57-5.33-15.35-10.84-19.41-21.96s-3.29-24.53-2.22-28.73c.38-1.51.93-3.06,1.48-4.44C5.56,35.46,0,49.95,0,65.74c0,35.79,28.55,64.92,64.12,65.84,1.79-1.64,5.98-5.53,7.42-7.17Z"/>
      <path class="cls-1" d="M53,24.46c-.96,12.26,12.04,18.17,12.7,18.09s24.52,6.65,28.58,7.98c4.06,1.33,12.85,6.28,18.17,15.76,5.32,9.49,6.06,16.36,6.06,21.6,0,4.19-.95,14.98-1.33,19.15,9.11-11.3,14.56-25.66,14.56-41.3C131.73,30.72,104.39,2.08,69.9,0c-7.8,2.28-15.98,12.78-16.9,24.46Z"/>
      <path class="cls-1" d="M82.66,129.44c7.48-1.97,14.44-5.22,20.63-9.5,1.89-4.42,3.94-11.64,4.46-15.16.78-5.3-1.3-16.67-3.03-21.19-3.53-9.24-7.43-14-11.27-17.84s-10.34-6.23-20.09-8.49c-8.83-2.05-16.71-4.16-22.33-8.81-5.61-4.65-7.49-12-9.12-18.72-1.62-6.72,2.73-18.98,3.25-20.68.35-1.15,2.71-4.77,4.21-7,.02-.03.05-.06.07-.1-5.3,1.36-10.34,3.36-15.04,5.92-4.14,4.94-7.02,13.52-7.87,17.05-.66,2.77-1.44,12.3-.44,20.94.97,8.42,5.81,17.35,16.15,22.35,12.21,5.91,21.39,6.66,29.66,10.21,8.27,3.54,14.64,10.68,16.76,17.8,1.97,6.59,3.5,17.8-2.81,28.21-1.34,2.22-2.39,3.84-3.2,5.03Z"/>
    </g>
  </g>
</svg>